<?xml version="1.0" standalone="no"?>
<!DOCTYPE svg PUBLIC "-//W3C//DTD SVG 20010904//EN"
 "http://www.w3.org/TR/2001/REC-SVG-20010904/DTD/svg10.dtd">
<svg version="1.0" xmlns="http://www.w3.org/2000/svg"
 width="1280.000000pt" height="1280.000000pt" viewBox="0 0 1280.000000 1280.000000"
 preserveAspectRatio="xMidYMid meet">

<g transform="translate(0.000000,1280.000000) scale(0.100000,-0.100000)"
fill="#000000" stroke="none">
<path d="M0 6400 l0 -6400 6400 0 6400 0 0 6400 0 6400 -6400 0 -6400 0 0
-6400z m7935 5434 c33 -8 101 -34 151 -58 156 -75 256 -187 310 -346 20 -59
22 -140 14 -545 -4 -189 5 -279 41 -414 27 -101 81 -228 131 -309 95 -155 131
-240 147 -354 24 -173 -66 -341 -251 -464 -78 -52 -109 -81 -163 -151 -22 -29
-46 -50 -53 -48 -7 3 -12 -1 -10 -8 2 -6 -16 -39 -40 -71 -43 -61 -53 -67 -27
-16 13 26 13 29 0 24 -8 -3 -14 -9 -13 -12 3 -13 -15 -57 -26 -64 -18 -13 -36
-9 -36 7 0 8 5 15 10 15 23 0 8 18 -19 22 -20 3 -27 0 -24 -8 2 -6 -8 -15 -24
-19 -15 -3 -31 -12 -35 -18 -5 -8 -8 -7 -8 3 0 13 -1 13 -10 0 -8 -13 -10 -12
-10 3 0 15 -3 16 -22 6 -21 -11 -22 -13 -4 -19 17 -6 18 -7 3 -13 -9 -3 -19
-2 -22 3 -3 5 -21 2 -40 -6 -19 -8 -40 -14 -47 -13 -7 0 -1 5 15 11 15 5 27
14 27 19 0 4 7 5 17 2 9 -4 14 -2 11 3 -3 5 14 25 37 44 57 47 110 128 125
191 18 72 7 142 -34 232 -108 235 -112 356 -17 546 53 106 64 156 59 253 -4
69 -10 94 -38 148 -61 121 -197 224 -390 296 -239 88 -347 194 -382 372 -18
93 -15 287 6 357 42 143 136 272 249 343 125 79 232 94 392 56z m-1974 -808
c186 -40 294 -156 384 -414 104 -301 243 -489 469 -637 160 -106 251 -263 230
-403 -10 -69 -49 -168 -84 -212 -31 -39 -35 -48 -66 -155 -9 -33 -23 -67 -31
-76 -7 -8 -13 -20 -13 -25 0 -5 5 -2 11 6 8 12 9 11 6 -5 -3 -11 -11 -48 -18
-82 -12 -58 -29 -77 -29 -32 0 10 -4 19 -9 19 -5 0 -7 -10 -5 -22 3 -17 1 -15
-10 7 -9 17 -16 23 -16 15 -1 -9 -5 -6 -10 8 -5 12 -7 28 -4 36 3 8 -3 19 -14
25 -14 7 -21 26 -26 62 -5 34 -18 68 -41 101 -19 28 -35 55 -35 60 0 5 -3 7
-8 4 -13 -8 -45 22 -37 35 5 7 3 10 -6 7 -16 -5 -99 74 -99 95 0 8 -7 17 -15
21 -9 3 -12 12 -8 22 4 11 2 15 -4 11 -23 -15 -45 77 -52 218 -9 165 -28 221
-96 284 -82 76 -182 111 -330 116 -108 3 -170 19 -145 36 11 7 8 8 -11 4 -19
-5 -26 -2 -26 9 0 9 9 16 21 16 16 1 13 4 -11 15 -23 10 -31 19 -27 29 4 11 0
16 -15 16 -12 0 -21 5 -21 10 0 6 -8 19 -17 29 -23 25 -33 38 -63 81 -13 19
-27 37 -31 40 -3 3 -11 15 -18 28 -6 12 -18 22 -25 22 -8 0 -28 25 -45 55 -19
33 -38 55 -49 55 -19 1 -82 94 -83 125 0 20 0 20 -8 0 -6 -14 -8 -6 -6 25 1
41 9 62 59 157 21 39 83 96 134 122 89 46 238 61 353 37z m-531 -399 c0 -11
-1 -18 -3 -16 -1 2 -8 11 -15 20 -9 13 -9 16 3 16 8 0 15 -9 15 -20z m-2303
-13 c-3 -3 -12 -4 -19 -1 -8 3 -5 6 6 6 11 1 17 -2 13 -5z m2633 -394 c0 -5
-5 -10 -11 -10 -5 0 -7 5 -4 10 3 6 8 10 11 10 2 0 4 -4 4 -10z m-1843 -6 c-3
-3 -12 -4 -19 -1 -8 3 -5 6 6 6 11 1 17 -2 13 -5z m263 -44 c-34 -11 -60 -11
-35 0 11 5 29 8 40 8 16 0 15 -2 -5 -8z m430 -15 c80 -24 119 -43 171 -81 57
-42 132 -149 123 -177 -4 -13 -2 -17 5 -12 8 5 10 -1 6 -18 -5 -18 -2 -28 10
-35 13 -7 16 -16 10 -41 -8 -37 -25 -41 -25 -6 0 14 -4 25 -10 25 -5 0 -10 9
-10 20 0 21 -19 28 -21 8 -1 -30 -10 -63 -18 -71 -10 -10 -16 7 -26 71 -6 35
-10 42 -25 37 -20 -6 -71 13 -83 32 -4 7 -14 13 -21 13 -8 0 -19 6 -25 14 -7
8 -34 20 -61 26 -28 7 -50 16 -50 21 0 4 -15 15 -32 24 -18 8 -46 26 -62 40
-16 14 -41 25 -55 25 -16 0 -21 3 -14 8 8 5 3 14 -17 27 -17 11 -29 27 -27 35
1 10 -9 16 -33 19 -30 3 -32 5 -15 12 31 13 243 2 305 -16z m-373 9 c-3 -3
-12 -4 -19 -1 -8 3 -5 6 6 6 11 1 17 -2 13 -5z m86 -40 c-4 -12 -14 -14 -36
-10 -16 3 -49 6 -73 6 -24 0 -44 4 -44 9 0 5 36 9 80 10 69 1 79 -1 73 -15z
m574 -346 c-3 -8 -6 -5 -6 6 -1 11 2 17 5 13 3 -3 4 -12 1 -19z m5005 -250
c170 -78 304 -312 285 -496 -13 -119 -64 -216 -193 -368 -187 -221 -279 -416
-304 -644 -6 -52 -17 -131 -26 -175 -15 -81 -54 -172 -73 -168 -5 2 -24 -14
-41 -35 -24 -28 -30 -32 -25 -14 4 13 2 22 -5 22 -6 0 -8 5 -4 11 5 8 8 8 14
0 5 -9 10 -8 18 2 9 11 8 13 -6 12 -9 0 -22 -4 -28 -8 -16 -9 -64 15 -64 33 0
13 -1 13 -10 0 -8 -13 -10 -12 -10 3 0 13 -8 17 -33 17 -37 0 -77 24 -77 46 0
8 -9 14 -20 14 -11 0 -20 4 -20 10 0 5 -7 7 -15 4 -11 -4 -13 -2 -10 9 4 8 -1
18 -12 22 -25 12 -29 12 -64 14 -16 0 -28 4 -26 9 3 4 -2 14 -11 21 -14 13
-15 12 -10 -7 4 -12 2 -20 -3 -16 -5 3 -9 18 -9 35 0 31 -9 36 -28 17 -24 -24
-44 38 -23 71 13 20 24 -5 12 -27 -8 -15 -6 -18 14 -18 13 0 21 4 19 8 -3 5
-10 6 -15 3 -12 -8 -11 2 2 27 6 12 7 18 1 14 -5 -3 -12 1 -16 9 -9 24 100
125 183 170 87 47 154 118 177 188 12 36 15 74 12 141 -3 83 -8 101 -45 177
-22 47 -59 112 -82 146 -71 104 -95 168 -95 253 -1 89 23 158 91 262 104 158
255 240 433 235 66 -2 97 -9 142 -29z m-1902 -558 c0 -5 -5 -10 -11 -10 -5 0
-7 5 -4 10 3 6 8 10 11 10 2 0 4 -4 4 -10z m-160 -10 c0 -5 -4 -10 -10 -10 -5
0 -10 5 -10 10 0 6 5 10 10 10 6 0 10 -4 10 -10z m-35 -20 c-3 -5 -14 -10 -23
-10 -15 0 -15 2 -2 10 20 13 33 13 25 0z m-978 -32 c-3 -7 -5 -2 -5 12 0 14 2
19 5 13 2 -7 2 -19 0 -25z m941 -9 c-21 -14 -26 -10 -21 11 4 16 8 18 20 9 11
-10 11 -14 1 -20z m3684 -660 c90 -19 197 -76 258 -138 73 -75 108 -143 131
-254 41 -198 17 -369 -69 -494 -76 -110 -160 -171 -382 -281 -317 -156 -424
-239 -641 -500 -11 -12 -19 -27 -19 -33 0 -5 -5 -7 -12 -3 -7 5 -9 2 -6 -7 3
-8 0 -23 -8 -34 -11 -15 -14 -16 -14 -3 0 22 -38 30 -44 9 -3 -12 -5 -11 -4 4
1 44 -2 51 -13 33 -14 -25 -44 -22 -62 5 -13 18 -16 19 -16 5 -1 -14 -10 -18
-36 -18 -32 0 -35 2 -35 31 l0 31 -80 -7 c-51 -5 -80 -4 -80 3 0 5 -36 13 -80
17 -58 5 -80 11 -80 21 0 10 -12 14 -40 14 -22 0 -40 5 -40 10 0 15 -77 12
-84 -2 -3 -7 -3 7 0 32 l5 45 -17 -32 c-9 -18 -21 -33 -25 -33 -5 0 -2 11 7
25 9 14 13 25 9 25 -5 0 0 9 11 21 10 12 19 24 19 28 -1 12 55 52 107 76 57
26 154 45 229 45 70 0 177 37 235 80 145 108 190 298 145 608 -26 175 -20 258
24 347 66 136 258 277 434 320 69 17 202 19 273 4z m-1874 -598 c-7 -12 -16
-21 -21 -21 -4 0 0 11 9 25 20 30 31 26 12 -4z m-109 -44 c-2 -1 -13 -9 -24
-17 -19 -14 -19 -14 -6 3 7 9 18 17 24 17 6 0 8 -1 6 -3z m55 -9 c-3 -4 -14
-8 -25 -8 -11 0 -18 4 -14 9 3 6 14 9 25 8 10 -1 16 -5 14 -9z m-2446 -775
c-4 -534 -5 -561 -25 -635 -30 -107 -63 -167 -134 -243 -118 -125 -261 -170
-539 -169 -185 0 -240 13 -352 80 -139 85 -232 264 -240 464 l-3 75 179 23
c98 12 180 21 182 19 2 -2 9 -39 15 -83 17 -125 51 -189 119 -224 52 -26 106
-32 190 -20 99 14 155 42 179 89 37 71 41 140 41 668 l0 513 196 0 195 0 -3
-557z m2899 -81 c-10 -10 -17 -24 -17 -30 0 -7 -7 -12 -16 -12 -13 0 -12 5 6
30 12 17 26 30 32 30 6 0 4 -8 -5 -18z m-48 -80 c-1 -15 -2 -15 -6 1 -4 15 -7
16 -21 5 -15 -12 -16 -11 -3 4 15 20 32 15 30 -10z m743 -174 c-7 -7 -12 -8
-12 -2 0 14 12 26 19 19 2 -3 -1 -11 -7 -17z m-12 -28 c0 -5 -2 -10 -4 -10 -3
0 -8 5 -11 10 -3 6 -1 10 4 10 6 0 11 -4 11 -10z m-205 -1051 c248 -69 411
-306 351 -512 -19 -66 -72 -171 -106 -210 -22 -25 -69 -40 -55 -17 3 6 15 10
26 10 10 0 19 7 19 15 0 13 -4 13 -27 -2 l-26 -17 7 29 c3 17 3 25 -2 18 -4
-7 -16 -12 -27 -11 -11 0 -28 -3 -37 -7 -13 -5 -18 -3 -18 9 0 9 -7 16 -15 16
-8 0 -25 6 -36 13 -17 10 -23 10 -26 0 -6 -18 -27 -16 -65 5 -18 10 -71 24
-118 31 -47 8 -89 17 -95 21 -10 7 -57 19 -152 39 -116 24 -158 35 -167 43 -6
4 -26 8 -45 8 -20 0 -43 5 -51 10 -13 8 -12 11 5 24 11 8 17 18 12 22 -4 4 -7
2 -7 -4 0 -7 -4 -12 -10 -12 -17 0 -11 13 28 65 21 28 38 52 39 55 0 3 24 52
52 109 75 148 140 213 246 247 50 16 246 18 300 3z m-2200 -64 c80 -25 176
-98 174 -135 0 -9 -4 -6 -9 7 -6 15 -15 21 -25 17 -11 -5 -14 -2 -9 10 3 9 1
16 -5 16 -6 0 -11 -7 -11 -15 0 -8 -4 -15 -10 -15 -5 0 -10 10 -10 23 -1 21
-1 22 -15 3 -8 -11 -15 -15 -15 -9 0 6 -24 14 -52 18 -63 9 -75 14 -57 27 9 6
-5 8 -41 7 -37 -2 -54 1 -52 9 3 15 -15 16 -20 1 -2 -7 -13 -9 -26 -4 -18 5
-21 10 -12 21 7 7 15 13 18 12 4 -1 14 1 22 5 55 21 90 21 155 2z m1506 -429
c-9 -11 -9 -15 1 -19 7 -3 2 -6 -11 -6 -23 -1 -24 0 -6 19 20 23 34 28 16 6z
m174 -1437 c27 0 114 -26 131 -40 8 -6 14 -9 14 -6 0 10 73 -24 118 -54 24
-16 47 -29 52 -29 5 0 40 -30 78 -67 89 -87 144 -184 166 -290 17 -86 21 -183
8 -183 -5 0 -7 -15 -5 -32 3 -27 1 -29 -6 -13 -5 11 -10 34 -10 52 -2 62 -16
71 -21 13 -6 -52 -6 -54 -17 -28 -7 15 -22 32 -35 39 -12 7 -29 18 -36 26 -7
7 -22 13 -33 13 -10 0 -18 5 -17 11 2 5 -15 20 -37 32 -22 12 -43 26 -46 30
-6 9 -29 23 -76 48 -13 7 -23 18 -23 26 0 8 -13 13 -32 14 -31 1 -32 1 -8 9
17 5 19 8 8 9 -10 1 -18 5 -18 10 0 5 -20 20 -44 32 -25 12 -45 25 -44 28 2
21 -6 29 -42 41 -32 10 -40 18 -40 37 0 17 -10 28 -37 41 -21 9 -42 23 -46 30
-4 6 -12 12 -18 12 -19 0 -69 44 -69 60 0 12 -8 15 -34 12 -30 -4 -35 -1 -33
17 1 13 8 21 19 21 9 0 19 4 22 9 4 6 -5 6 -21 2 -16 -5 -27 -13 -26 -19 2 -6
-4 -9 -12 -5 -13 4 -12 9 6 24 12 11 28 19 36 19 25 0 28 1 36 16 4 8 16 14
25 14 10 0 22 4 28 9 11 12 72 20 99 14 11 -3 29 -5 40 -4z m-339 -159 c0 -12
-4 -16 -9 -11 -5 5 -6 14 -3 20 10 15 12 14 12 -9z m894 -594 c0 -10 -7 -12
-22 -8 -21 5 -21 6 -2 13 10 4 20 8 22 8 1 1 2 -5 2 -13z"/>
<path d="M6820 9036 c0 -9 5 -16 10 -16 6 0 10 4 10 9 0 6 -4 13 -10 16 -5 3
-10 -1 -10 -9z"/>
<path d="M4448 10083 c7 -3 16 -2 19 1 4 3 -2 6 -13 5 -11 0 -14 -3 -6 -6z"/>
<path d="M4812 9960 c0 -14 2 -19 5 -12 2 6 2 18 0 25 -3 6 -5 1 -5 -13z"/>
<path d="M10677 6543 c-4 -3 -7 -11 -7 -17 0 -6 5 -5 12 2 6 6 9 14 7 17 -3 3
-9 2 -12 -2z"/>
<path d="M8168 5303 c7 -3 16 -2 19 1 4 3 -2 6 -13 5 -11 0 -14 -3 -6 -6z"/>
<path d="M10481 2894 c0 -11 3 -14 6 -6 3 7 2 16 -1 19 -3 4 -6 -2 -5 -13z"/>
</g>
</svg>
