<svg xmlns="http://www.w3.org/2000/svg" viewBox="0 0 64 64">
  <defs>
    <linearGradient id="g" x1="0%" y1="0%" x2="100%" y2="100%">
      <stop offset="0%" stop-color="#6366f1" />
      <stop offset="100%" stop-color="#06b6d4" />
    </linearGradient>
  </defs>
  <rect x="4" y="4" width="56" height="56" rx="14" fill="url(#g)" />
  <path
    d="M32 15.5l3.8 8.7 8.7 3.8-8.7 3.8-3.8 8.7-3.8-8.7-8.7-3.8 8.7-3.8L32 15.5zm12.7 20.4l1.7 3.9 3.9 1.7-3.9 1.7-1.7 3.9-1.7-3.9-3.9-1.7 3.9-1.7 1.7-3.9zM18.3 35.9l1.7 3.9 3.9 1.7-3.9 1.7-1.7 3.9-1.7-3.9-3.9-1.7 3.9-1.7 1.7-3.9z"
    fill="#fff"
  />
</svg>
